# xmcd
#
# Track frame offsets:
#	150
#	9849
#	25740
#	37604
#	47122
#	61634
#	69945
#	83161
#	92911
#	105102
#
# Disc length: 1599 seconds
#
# Revision: 1
# Processed by: cddbd v1.5.1PL2 Copyright (c) Steve Scherf et al.
# Submitted via: audiograbber 1.83.01
#
DISCID=5e063d0a
DTITLE=Anne Murray - The Last Thing On My Mind
DYEAR=2002
DGENRE=Country
TTITLE0=Some birds
TTITLE1=Both sides now
TTITLE2=The last thing on my mind
TTITLE3=It's all over
TTITLE4=David's song
TTITLE5=Paths of victory
TTITLE6=Buffalo in the park
TTITLE7=For baby
TTITLE8=All the time
TTITLE9=There goes my everything
EXTD=
EXTT0=
EXTT1=
EXTT2=
EXTT3=
EXTT4=
EXTT5=
EXTT6=
EXTT7=
EXTT8=
EXTT9=
PLAYORDER=
